<?xml version="1.0" encoding="UTF-8"?>
<svg id="Play_Button_gem" data-name="Play Button gem" xmlns="http://www.w3.org/2000/svg" xmlns:xlink="http://www.w3.org/1999/xlink" viewBox="0 0 168.38237 46.54457">
  <defs>
    <style>
      .cls-1 {
        fill: #6b6e70;
      }

      .cls-1, .cls-2 {
        fill-rule: evenodd;
      }

      .cls-2 {
        fill: url(#linear-gradient);
      }
    </style>
    <linearGradient id="linear-gradient" x1="17.85349" y1="3314.04301" x2="45.23265" y2="3314.04285" gradientTransform="translate(0 3337.3634) scale(1 -1)" gradientUnits="userSpaceOnUse">
      <stop offset="0" stop-color="#00a55f"/>
      <stop offset="1" stop-color="#4cf1ac"/>
    </linearGradient>
  </defs>
  <path class="cls-1" d="M4.50078,0H0V36.34533H4.50078V0ZM59.43635,9.41094c-4.57737,0-8.14497,2.3267-10.0298,5.45114-1.48097,2.45967-2.01953,5.25171-2.01953,8.37615,0,3.72267,1.07712,7.17951,3.29845,9.70577,2.01953,2.39313,5.04858,3.92199,8.81824,3.92199,2.49074,0,4.84678-.73115,6.73161-1.99428,2.15398-1.46256,3.70231-3.85569,4.10616-6.44826h-4.37531c-.33676,1.396-.80797,2.12741-1.54833,2.85856-1.07712,1.13-2.82724,1.72829-4.91413,1.72829-2.01953,0-3.63495-.66458-4.84678-1.86115-1.61542-1.59568-2.55783-4.18825-2.55783-6.58136h18.78095l.06735-2.6591c.06736-3.5233-1.21156-6.91365-3.36581-9.24035-2.01953-1.99433-4.71207-3.25741-8.14523-3.25741Zm-7.27096,11.43408c.13444-3.85567,2.49048-7.71136,7.26991-7.71136,2.35603,0,4.10643,.93068,5.25064,2.39319,1.07712,1.39602,1.61568,3.39035,1.61568,5.31817h-14.13623Zm34.08322-11.1687c-2.94564,0-6.36012,1.4588-7.90003,4.04489l-.80324-3.3818h-3.41448V46.54457h4.41873v-13.19565c1.40573,2.38735,4.8202,3.71336,7.63219,3.71336,3.07955,0,5.48979-1.06081,7.23044-2.65229,2.67781-2.51995,4.01697-6.63111,4.01697-11.14012,0-4.31014-1.27208-8.28875-3.81623-10.80852-1.60673-1.72408-4.15089-2.78502-7.36436-2.78502Zm-.73457,23.74205c-1.94166,0-3.21348-.79587-4.28481-1.72408-2.20923-1.92298-2.94564-5.03963-2.94564-8.28881s.73641-6.43208,2.94564-8.28876c1.07133-.92834,2.34315-1.72408,4.28481-1.72408,5.89153,0,7.43119,5.23851,7.43119,10.01283s-1.53965,10.01288-7.43119,10.01288Zm17.11185-18.55629c1.88483-3.12444,5.45243-5.45114,10.03007-5.45114,3.4329,0,6.1257,1.26308,8.14497,3.25741,2.15425,2.3267,3.43316,5.71706,3.36581,9.24035l-.06735,2.6591h-18.78095c0,2.39311,.94242,4.98567,2.55809,6.58136,1.21157,1.19657,2.82725,1.86115,4.84652,1.86115,2.08688,0,3.83701-.59828,4.91413-1.72829,.74036-.73115,1.21157-1.46256,1.54833-2.85856h4.37558c-.40412,2.59256-1.95219,4.9857-4.10643,6.44826-1.88483,1.26313-4.24087,1.99428-6.73161,1.99428-3.76966,0-6.7987-1.52886-8.81824-3.92199-2.22133-2.52626-3.29845-5.9831-3.29845-9.70577,0-3.12444,.53856-5.91648,2.01953-8.37615Zm10.02849-1.72842c-4.77942,0-7.13547,3.85569-7.26991,7.71136h14.13622c0-1.92782-.53856-3.92215-1.61568-5.31817-1.14421-1.46251-2.89459-2.39319-5.25064-2.39319Zm26.47418-3.72172c-4.57737,0-8.14497,2.32673-10.0298,5.45114-1.48097,2.45967-2.01953,5.25171-2.01953,8.37615,0,3.72272,1.07712,7.17956,3.29846,9.70582,2.01953,2.39313,5.04857,3.92199,8.81823,3.92199,2.49075,0,4.84678-.73115,6.73161-1.99428,2.15425-1.46256,3.70231-3.85569,4.10616-6.44825h-4.3753c-.33677,1.396-.80798,2.12714-1.54833,2.85855-1.07712,1.13-2.82725,1.72829-4.91414,1.72829-2.01927,0-3.63495-.66458-4.84652-1.86141-1.61568-1.59542-2.55809-4.18799-2.55809-6.58115h18.78096l.06735-2.6591c.06735-3.5233-1.21157-6.91365-3.36581-9.24035-2.01927-1.99433-4.71207-3.25741-8.14523-3.25741Zm-7.2707,11.43306c.13471-3.85567,2.49075-7.71136,7.27017-7.71136,2.35604,0,4.10616,.93068,5.25064,2.39319,1.07685,1.39602,1.61542,3.39035,1.61542,5.31817h-14.13624Zm36.52451-7.32095l-1.00635-3.19361-9.32732,3.26015-.80535-3.39322h-3.42237v26.14771h4.42898V17.7822l10.13242-4.25815ZM9.00154,10.19737h4.50078v26.14771h-4.50078V10.19737ZM14.0322,0h-5.03029V4.96807h5.03029V0Z"/>
  <path class="cls-2" d="M23.27236,9.58272h-5.47585v5.47585h5.47585v-5.47585Zm10.95161,.00003h-5.47585v5.47585h5.47585v-5.47585Zm0,21.90344h-5.47585v5.47585h5.47585v-5.47585Zm5.47585-21.90344h5.47585v5.47585h-5.47585v-5.47585Zm-5.47585,10.95169h5.47585v5.47585h-5.47585v-5.47585Zm-5.47585,0h-5.47577v5.47585h5.47577v-5.47585Z"/>
</svg>